<?xml version="1.0" encoding="iso-8859-1"?>
<!-- Generator: Adobe Illustrator 16.0.0, SVG Export Plug-In . SVG Version: 6.00 Build 0)  -->
<!DOCTYPE svg PUBLIC "-//W3C//DTD SVG 1.1//EN" "http://www.w3.org/Graphics/SVG/1.1/DTD/svg11.dtd">
<svg xmlns="http://www.w3.org/2000/svg" xmlns:xlink="http://www.w3.org/1999/xlink" version="1.1" id="Capa_1" x="0px" y="0px" width="512px" height="512px" viewBox="0 0 485.215 485.215" style="enable-background:new 0 0 485.215 485.215;" xml:space="preserve">
<g>
	<path d="M485.215,333.586c0,41.877-33.943,75.812-75.821,75.812H151.628v-0.467c-33.493,0-60.651-27.157-60.651-60.658   c0-33.495,27.158-60.653,60.651-60.653v-0.467h0.089c0.534-41.462,34.179-74.869,75.726-74.869c8.914,0,17.327,1.837,25.258,4.618   c15.023-29.615,45.401-50.105,80.881-50.105c50.26,0,90.979,40.718,90.979,90.978c0,0.532-0.145,1.008-0.145,1.508   C459.089,266.239,485.215,296.865,485.215,333.586z M125.094,261.087l0.917-3.846c14.396-46.916,61.512-80.32,112.748-74.631   c21.616-27.485,54.075-43.95,89.433-45.521c-12.345-35.565-45.784-61.272-85.585-61.272c-35.482,0-65.864,20.493-80.881,50.106   c-7.934-2.784-16.346-4.618-25.258-4.618c-41.553,0-75.196,33.407-75.728,74.867h-0.088v0.474C27.157,196.646,0,223.804,0,257.297   c0,33.496,27.157,60.654,60.651,60.654v0.466h5.152c9.066-25.995,29.559-46.727,55.501-55.906L125.094,261.087z" fill="#F21FA0"/>
</g>
<g>
</g>
<g>
</g>
<g>
</g>
<g>
</g>
<g>
</g>
<g>
</g>
<g>
</g>
<g>
</g>
<g>
</g>
<g>
</g>
<g>
</g>
<g>
</g>
<g>
</g>
<g>
</g>
<g>
</g>
</svg>
